<svg width="30" height="30" viewBox="0 0 30 30" fill="none" xmlns="http://www.w3.org/2000/svg">
<path fill-rule="evenodd" clip-rule="evenodd" d="M6.81042 29.9999V9.75805H0.380138V29.9999H6.81042V29.9999ZM3.59596 6.99537C5.83762 6.99537 7.23401 5.43973 7.23401 3.49732C7.19162 1.51173 5.83762 0 3.63799 0C1.43801 6.142e-05 0 1.51179 0 3.49738C0 5.43979 1.39562 6.99543 3.55363 6.99543L3.59596 6.99537ZM10.3693 29.9999C10.3693 29.9999 10.4537 11.6573 10.3693 9.75811H16.8006V12.6936H16.7579C17.6036 11.3123 19.1271 9.28278 22.5959 9.28278C26.8279 9.28278 30 12.1758 30 18.3934V30H23.5698V19.1712C23.5698 16.4502 22.6394 14.5935 20.3116 14.5935C18.5355 14.5935 17.4769 15.8452 17.0121 17.0552C16.842 17.4859 16.8006 18.0908 16.8006 18.6958V29.9999H10.3693Z" fill="white"/>
</svg>
